<?xml version="1.0" standalone="no"?>
<!DOCTYPE svg PUBLIC "-//W3C//DTD SVG 20010904//EN"
 "http://www.w3.org/TR/2001/REC-SVG-20010904/DTD/svg10.dtd">
<svg version="1.0" xmlns="http://www.w3.org/2000/svg"
 width="225.000000pt" height="225.000000pt" viewBox="0 0 225.000000 225.000000"
 preserveAspectRatio="xMidYMid meet">

<g transform="translate(0.000000,225.000000) scale(0.100000,-0.100000)"
fill="#000000" stroke="none">
<path d="M1271 2082 c-2 -90 -26 -123 -225 -296 -75 -65 -106 -108 -106 -147
0 -44 47 -122 111 -184 61 -59 67 -59 24 0 -97 132 -85 213 51 329 148 126
200 232 159 321 l-13 30 -1 -53z"/>
<path d="M1339 1826 c-68 -28 -104 -50 -147 -90 -82 -75 -83 -150 -4 -254 26
-34 32 -70 18 -112 l-8 -25 27 25 c33 30 55 71 55 102 0 12 -17 50 -37 83 -22
36 -37 72 -37 91 0 45 41 94 130 153 84 57 85 61 3 27z"/>
<path d="M1504 1382 c4 -7 13 -12 21 -12 17 0 65 -57 65 -77 0 -30 -49 -99
-90 -128 -22 -15 -38 -30 -36 -32 9 -10 128 61 146 87 55 77 22 151 -75 167
-28 4 -36 3 -31 -5z"/>
<path d="M850 1360 c-52 -13 -130 -48 -130 -59 0 -26 79 -36 295 -36 222 0
310 10 365 41 19 11 20 14 5 10 -119 -28 -495 -40 -549 -17 -26 10 -28 14 -15
26 8 8 32 21 54 29 44 16 31 19 -25 6z"/>
<path d="M863 1198 c-30 -14 -38 -40 -17 -55 48 -35 277 -44 427 -17 89 16 89
16 63 33 -23 16 -34 16 -113 3 -99 -15 -289 -10 -323 8 -12 7 -19 18 -16 26 3
8 4 14 3 13 -1 0 -12 -5 -24 -11z"/>
<path d="M885 1034 c-15 -16 -15 -18 2 -35 50 -50 254 -63 390 -24 l62 17 -37
19 c-31 16 -44 18 -91 9 -102 -19 -280 -7 -289 19 -5 16 -18 14 -37 -5z"/>
<path d="M707 940 c-84 -26 -125 -70 -79 -84 45 -13 150 -27 283 -36 322 -23
706 42 663 112 -5 8 -10 4 -15 -10 -19 -50 -217 -76 -537 -70 -175 4 -239 9
-279 22 -29 9 -53 21 -53 25 0 16 31 34 78 47 29 8 37 13 22 13 -14 0 -51 -8
-83 -19z"/>
<path d="M1616 851 c-10 -16 -127 -49 -236 -68 -65 -11 -161 -16 -305 -17
-116 -1 -190 -4 -165 -8 71 -10 367 -9 460 2 47 6 114 19 150 30 65 20 120 53
108 65 -3 3 -9 2 -12 -4z"/>
<path d="M650 458 c-1 -215 -7 -258 -44 -297 -21 -22 -23 -29 -12 -43 12 -17
15 -17 47 5 64 42 69 66 69 310 l0 217 -30 0 -30 0 0 -192z"/>
<path d="M813 529 c-34 -10 -38 -16 -25 -35 5 -9 21 -9 59 -1 65 13 103 -6
103 -53 0 -27 -3 -29 -54 -35 -94 -12 -145 -61 -131 -126 14 -62 87 -86 155
-50 33 17 40 18 40 6 0 -9 10 -15 25 -15 l25 0 0 129 c0 71 -3 137 -6 146 -16
39 -112 57 -191 34z m137 -202 c0 -35 -4 -46 -22 -55 -48 -24 -86 -18 -98 14
-18 47 18 82 88 83 31 1 32 0 32 -42z"/>
<path d="M1060 534 c0 -4 21 -77 47 -161 l46 -153 43 0 42 0 26 70 c25 67 66
217 66 239 0 6 -13 11 -29 11 -32 0 -33 -1 -51 -90 -16 -83 -48 -177 -53 -160
-3 8 -20 67 -39 130 -33 114 -34 115 -66 118 -17 2 -32 0 -32 -4z"/>
<path d="M1413 528 c-34 -11 -38 -16 -25 -34 5 -9 21 -9 59 -1 65 13 103 -6
103 -53 0 -27 -3 -29 -47 -35 -100 -13 -133 -41 -133 -111 0 -50 23 -74 77
-80 26 -4 50 1 75 14 30 16 38 17 42 6 3 -8 15 -14 26 -14 19 0 20 6 20 129 0
71 -3 137 -6 146 -16 40 -115 57 -191 33z m137 -201 c0 -44 -8 -54 -61 -70
-30 -10 -60 21 -57 56 3 36 34 57 86 57 31 0 32 -1 32 -43z"/>
</g>
</svg>
