<?xml version="1.0" standalone="no"?>
<!DOCTYPE svg PUBLIC "-//W3C//DTD SVG 20010904//EN"
 "http://www.w3.org/TR/2001/REC-SVG-20010904/DTD/svg10.dtd">
<svg version="1.0" xmlns="http://www.w3.org/2000/svg"
 width="512.000000pt" height="512.000000pt" viewBox="0 0 512.000000 512.000000"
 preserveAspectRatio="xMidYMid meet">
<metadata>
Created by potrace 1.16, written by Peter Selinger 2001-2019
</metadata>
<g transform="translate(0.000000,512.000000) scale(0.100000,-0.100000)"
fill="#000000" stroke="none">
<path d="M1620 4901 l-895 -217 -3 -712 -2 -712 485 0 485 0 0 -95 0 -95 -486
0 -486 0 5 -432 c5 -464 9 -513 64 -723 165 -633 674 -1243 1450 -1737 72 -46
175 -106 227 -134 l96 -49 74 38 c271 139 651 412 901 647 456 430 715 853
822 1343 26 120 26 129 30 585 l4 462 -480 0 -481 0 0 95 0 95 485 0 485 0 -2
712 -3 713 -900 217 c-495 119 -918 216 -940 216 -22 0 -443 -98 -935 -217z
m1099 -1097 c143 -32 299 -143 384 -272 223 -338 105 -773 -258 -953 -386
-191 -850 43 -931 472 -41 212 26 422 185 579 171 169 380 228 620 174z"/>
<path d="M2519 3480 c-77 -14 -139 -90 -139 -170 0 -46 31 -111 64 -137 14
-12 26 -30 26 -40 0 -11 14 -32 30 -48 17 -16 30 -39 30 -51 0 -12 7 -27 15
-34 19 -16 19 -29 0 -50 -14 -16 -14 -21 1 -53 17 -35 16 -46 -8 -79 -11 -15
-9 -22 14 -45 l28 -27 30 29 30 29 0 169 0 170 39 36 c134 124 22 335 -160
301z"/>
</g>
</svg>
