<?xml version="1.0" standalone="no"?>
<!DOCTYPE svg PUBLIC "-//W3C//DTD SVG 20010904//EN"
 "http://www.w3.org/TR/2001/REC-SVG-20010904/DTD/svg10.dtd">
<svg version="1.0" xmlns="http://www.w3.org/2000/svg"
 width="225.000000pt" height="225.000000pt" viewBox="0 0 225.000000 225.000000"
 preserveAspectRatio="xMidYMid meet">
<metadata>
Created by potrace 1.16, written by Peter Selinger 2001-2019
</metadata>
<g transform="translate(0.000000,225.000000) scale(0.100000,-0.100000)"
fill="#000000" stroke="none">
<path d="M940 2045 c-353 -75 -625 -333 -722 -683 -18 -64 -22 -104 -22 -237
1 -145 3 -168 28 -250 15 -49 43 -122 62 -162 34 -71 129 -207 176 -250 l24
-23 0 36 c0 27 7 43 28 60 33 29 65 30 99 4 33 -26 41 -63 22 -100 -14 -28
-27 -34 -80 -42 -28 -5 105 -91 203 -133 138 -58 201 -70 367 -70 124 0 164 4
234 23 466 126 751 555 701 1054 -17 170 -60 362 -132 587 l-30 94 -38 -71
c-58 -111 -55 -109 -109 -59 -94 87 -216 156 -361 202 -74 24 -105 28 -235 31
-103 2 -170 -1 -215 -11z m978 -275 c72 -223 105 -412 105 -600 -1 -115 -5
-161 -22 -225 -30 -113 -74 -197 -142 -269 -81 -87 -164 -130 -324 -168 -32
-8 -771 -28 -784 -21 -1 1 91 32 205 69 295 94 395 148 546 293 130 123 228
271 279 418 27 79 24 78 -20 -4 -51 -97 -107 -168 -207 -263 -200 -189 -379
-271 -798 -365 -131 -29 -142 -27 -203 37 -51 53 -76 121 -81 220 -12 238 144
438 393 503 33 8 128 20 210 26 190 13 280 29 384 69 155 60 338 205 402 319
12 23 26 38 30 34 3 -5 16 -37 27 -73z"/>
</g>
</svg>
